<svg xmlns="http://www.w3.org/2000/svg" viewBox="0 0 64 64">
  <defs>
    <linearGradient id="bg" x1="10" y1="6" x2="54" y2="58" gradientUnits="userSpaceOnUse">
      <stop offset="0" stop-color="#22c55e"/>
      <stop offset="0.52" stop-color="#3b82f6"/>
      <stop offset="1" stop-color="#0f172a"/>
    </linearGradient>
    <linearGradient id="lens" x1="20" y1="16" x2="42" y2="40" gradientUnits="userSpaceOnUse">
      <stop offset="0" stop-color="#ffffff"/>
      <stop offset="1" stop-color="#dbeafe"/>
    </linearGradient>
  </defs>
  <rect width="64" height="64" rx="14" fill="#0b1220"/>
  <path d="M32 7 52 15v15c0 13-8.6 22.6-20 27-11.4-4.4-20-14-20-27V15l20-8Z" fill="url(#bg)"/>
  <path d="M32 12.8 47 18.7v11.1c0 9.3-5.8 16.9-15 20.9-9.2-4-15-11.6-15-20.9V18.7l15-5.9Z" fill="#111827" opacity=".36"/>
  <circle cx="29" cy="28" r="10.5" fill="none" stroke="url(#lens)" stroke-width="5"/>
  <path d="m37 36 9 9" stroke="#f8fafc" stroke-width="5" stroke-linecap="round"/>
  <path d="M23 28h12M29 22v12" stroke="#93c5fd" stroke-width="2.6" stroke-linecap="round" opacity=".95"/>
</svg>
